<svg width="1000" height="948.4268587854028" viewBox="0 0 1000 948.4268587854028" xmlns="http://www.w3.org/2000/svg"><defs/><path fill="#08619a" transform="matrix(1.7086089472432433 0 0 1.7086089472432433 -31.9979456217159 -33.22738214518294)" d="M 509.12719769255 388.80510885559 C 496.41819769255 388.80510885559 489.79919769255 382.53510885559 484.48119769255 377.49610885559 C 479.93019769255 373.18510885559 476.64219769255 370.07110885559 469.57519769255 370.07110885559 C 462.50719769255 370.07110885559 459.21719769255 373.18710885559 454.66719769255 377.49810885559 C 449.34819769255 382.53510885559 442.72919769255 388.80510885559 430.01819769255 388.80510885559 C 417.30919769255 388.80510885559 410.69219769255 382.53510885559 405.37219769255 377.49810885559 C 400.82119769255 373.18710885559 397.53319769255 370.07110885559 390.46619769255 370.07110885559 C 383.40119769255 370.07110885559 380.11119769255 373.18510885559 375.56019769255 377.49610885559 C 370.24119769255 382.53510885559 363.62219769255 388.80510885559 350.91319769255 388.80510885559 C 338.20219769255 388.80510885559 331.58519769255 382.53510885559 326.26719769255 377.49610885559 C 321.71619769255 373.18510885559 318.42819769255 370.07110885559 311.36219769255 370.07110885559 C 304.29419769255 370.07110885559 301.00719769255 373.18510885559 296.45619769255 377.49610885559 C 291.13719769255 382.53510885559 284.51819769255 388.80510885559 271.80919769255 388.80510885559 C 259.09819769255 388.80510885559 252.48019769255 382.53510885559 247.16219769255 377.49610885559 C 242.61119769255 373.18510885559 239.32419769255 370.07110885559 232.25819769255 370.07110885559 C 225.19019769255 370.07110885559 221.90319769255 373.18510885559 217.35219769255 377.49610885559 C 212.03319769255 382.53510885559 205.41419769255 388.80510885559 192.70519769255 388.80510885559 C 179.99619769255 388.80510885559 173.37819769255 382.53510885559 168.05919769255 377.49810885559 C 163.50819769255 373.18710885559 160.22119769255 370.07110885559 153.15319769255 370.07110885559 C 146.08519769255 370.07110885559 142.79819769255 373.18510885559 138.24719769255 377.49610885559 C 132.92819769255 382.53510885559 126.30919769255 388.80510885559 113.60019769255 388.80510885559 C 109.69019769255 388.80510885559 106.51819769255 385.63310885559 106.51819769255 381.72310885559 C 106.51819769255 377.81310885559 109.68919769255 374.64210885559 113.60019769255 374.64210885559 C 120.66819769255 374.64210885559 123.95619769255 371.52810885559 128.50619769255 367.21610885559 C 133.82519769255 362.17810885559 140.44419769255 355.90810885559 153.15319769255 355.90810885559 C 165.86419769255 355.90810885559 172.48119769255 362.17810885559 177.80019769255 367.21610885559 C 182.35019769255 371.52810885559 185.63819769255 374.64210885559 192.70419769255 374.64210885559 C 199.77119769255 374.64210885559 203.05919769255 371.52810885559 207.61019769255 367.21610885559 C 212.92919769255 362.17810885559 219.54719769255 355.90810885559 232.25719769255 355.90810885559 C 244.96619769255 355.90810885559 251.58319769255 362.17810885559 256.90319769255 367.21410885559 C 261.45319769255 371.52610885559 264.74119769255 374.64210885559 271.80919769255 374.64210885559 C 278.87419769255 374.64210885559 282.16419769255 371.52810885559 286.71519769255 367.21610885559 C 292.03419769255 362.17810885559 298.65319769255 355.90810885559 311.36219769255 355.90810885559 C 324.07119769255 355.90810885559 330.68919769255 362.17810885559 336.00719769255 367.21410885559 C 340.55819769255 371.52610885559 343.84619769255 374.64210885559 350.91319769255 374.64210885559 C 357.98119769255 374.64210885559 361.26919769255 371.52810885559 365.81919769255 367.21610885559 C 371.13819769255 362.17810885559 377.75719769255 355.90810885559 390.46619769255 355.90810885559 C 403.17719769255 355.90810885559 409.79419769255 362.17810885559 415.11319769255 367.21610885559 C 419.66419769255 371.52810885559 422.95119769255 374.64210885559 430.01719769255 374.64210885559 C 437.08419769255 374.64210885559 440.37419769255 371.52610885559 444.92519769255 367.21410885559 C 450.24419769255 362.17810885559 456.86319769255 355.90810885559 469.57419769255 355.90810885559 C 482.28319769255 355.90810885559 488.90219769255 362.17810885559 494.22119769255 367.21610885559 C 498.77119769255 371.52810885559 502.05919769255 374.64210885559 509.12619769255 374.64210885559 C 513.03719769255 374.64210885559 516.20819769255 377.81310885559 516.20819769255 381.72310885559 C 516.20819769255 385.63310885559 513.03819769255 388.80510885559 509.12719769255 388.80510885559 Z"/><path fill="#08619a" transform="matrix(1.7086089472432433 0 0 1.7086089472432433 -31.9979456217159 -33.22738214518294)" d="M 509.12719769255 440.03810885559 C 496.41819769255 440.03810885559 489.79919769255 433.76810885559 484.48119769255 428.73010885559 C 479.93019769255 424.41810885559 476.64219769255 421.30410885559 469.57519769255 421.30410885559 C 462.50719769255 421.30410885559 459.21719769255 424.42010885559 454.66719769255 428.73210885559 C 449.34819769255 433.76810885559 442.72919769255 440.03810885559 430.01819769255 440.03810885559 C 417.30919769255 440.03810885559 410.69219769255 433.76810885559 405.37219769255 428.73210885559 C 400.82119769255 424.42010885559 397.53319769255 421.30410885559 390.46619769255 421.30410885559 C 383.40119769255 421.30410885559 380.11119769255 424.41810885559 375.56019769255 428.73010885559 C 370.24119769255 433.76810885559 363.62219769255 440.03810885559 350.91319769255 440.03810885559 C 338.20219769255 440.03810885559 331.58519769255 433.76810885559 326.26719769255 428.73010885559 C 321.71619769255 424.41810885559 318.42819769255 421.30410885559 311.36219769255 421.30410885559 C 304.29419769255 421.30410885559 301.00719769255 424.41810885559 296.45619769255 428.73010885559 C 291.13719769255 433.76810885559 284.51819769255 440.03810885559 271.80919769255 440.03810885559 C 259.09819769255 440.03810885559 252.48019769255 433.76810885559 247.16219769255 428.73010885559 C 242.61119769255 424.41810885559 239.32419769255 421.30410885559 232.25819769255 421.30410885559 C 225.19019769255 421.30410885559 221.90319769255 424.41810885559 217.35219769255 428.73010885559 C 212.03319769255 433.76810885559 205.41419769255 440.03810885559 192.70519769255 440.03810885559 C 179.99619769255 440.03810885559 173.37819769255 433.76810885559 168.05919769255 428.73210885559 C 163.50819769255 424.42010885559 160.22119769255 421.30410885559 153.15319769255 421.30410885559 C 146.08519769255 421.30410885559 142.79819769255 424.41810885559 138.24719769255 428.73010885559 C 132.92819769255 433.76810885559 126.30919769255 440.03810885559 113.60019769255 440.03810885559 C 109.69019769255 440.03810885559 106.51819769255 436.86710885559 106.51819769255 432.95710885559 C 106.51819769255 429.04710885559 109.68919769255 425.87510885559 113.60019769255 425.87510885559 C 120.66819769255 425.87510885559 123.95619769255 422.76210885559 128.50619769255 418.45010885559 C 133.82519769255 413.41110885559 140.44419769255 407.14110885559 153.15319769255 407.14110885559 C 165.86419769255 407.14110885559 172.48119769255 413.41110885559 177.80019769255 418.45010885559 C 182.35019769255 422.76210885559 185.63819769255 425.87510885559 192.70419769255 425.87510885559 C 199.77119769255 425.87510885559 203.05919769255 422.76210885559 207.61019769255 418.45010885559 C 212.92919769255 413.41110885559 219.54719769255 407.14110885559 232.25719769255 407.14110885559 C 244.96619769255 407.14110885559 251.58319769255 413.41110885559 256.90319769255 418.44810885559 C 261.45319769255 422.75910885559 264.74119769255 425.87510885559 271.80919769255 425.87510885559 C 278.87419769255 425.87510885559 282.16419769255 422.76210885559 286.71519769255 418.45010885559 C 292.03419769255 413.41110885559 298.65319769255 407.14110885559 311.36219769255 407.14110885559 C 324.07119769255 407.14110885559 330.68919769255 413.41110885559 336.00719769255 418.44810885559 C 340.55819769255 422.75910885559 343.84619769255 425.87510885559 350.91319769255 425.87510885559 C 357.98119769255 425.87510885559 361.26919769255 422.76210885559 365.81919769255 418.45010885559 C 371.13819769255 413.41110885559 377.75719769255 407.14110885559 390.46619769255 407.14110885559 C 403.17719769255 407.14110885559 409.79419769255 413.41110885559 415.11319769255 418.45010885559 C 419.66419769255 422.76210885559 422.95119769255 425.87510885559 430.01719769255 425.87510885559 C 437.08419769255 425.87510885559 440.37419769255 422.75910885559 444.92519769255 418.44810885559 C 450.24419769255 413.41110885559 456.86319769255 407.14110885559 469.57419769255 407.14110885559 C 482.28319769255 407.14110885559 488.90219769255 413.41110885559 494.22119769255 418.45010885559 C 498.77119769255 422.76210885559 502.05919769255 425.87510885559 509.12619769255 425.87510885559 C 513.03719769255 425.87510885559 516.20819769255 429.04710885559 516.20819769255 432.95710885559 C 516.20819769255 436.86710885559 513.03819769255 440.03810885559 509.12719769255 440.03810885559 Z"/><path fill="#08619a" transform="matrix(1.7086089472432433 0 0 1.7086089472432433 -31.9979456217159 -33.22738214518294)" d="M 509.12719769255 491.27110885559 C 496.41819769255 491.27110885559 489.79919769255 485.00110885559 484.48119769255 479.96310885559 C 479.93019769255 475.65110885559 476.64219769255 472.53710885559 469.57519769255 472.53710885559 C 462.50719769255 472.53710885559 459.21719769255 475.65310885559 454.66719769255 479.96510885559 C 449.34819769255 485.00110885559 442.72919769255 491.27110885559 430.01819769255 491.27110885559 C 417.30919769255 491.27110885559 410.69219769255 485.00110885559 405.37219769255 479.96510885559 C 400.82119769255 475.65310885559 397.53319769255 472.53710885559 390.46619769255 472.53710885559 C 383.40119769255 472.53710885559 380.11119769255 475.65110885559 375.56019769255 479.96310885559 C 370.24119769255 485.00110885559 363.62219769255 491.27110885559 350.91319769255 491.27110885559 C 338.20219769255 491.27110885559 331.58519769255 485.00110885559 326.26719769255 479.96310885559 C 321.71619769255 475.65110885559 318.42819769255 472.53710885559 311.36219769255 472.53710885559 C 304.29419769255 472.53710885559 301.00719769255 475.65110885559 296.45619769255 479.96310885559 C 291.13719769255 485.00110885559 284.51819769255 491.27110885559 271.80919769255 491.27110885559 C 259.09819769255 491.27110885559 252.48019769255 485.00110885559 247.16219769255 479.96310885559 C 242.61119769255 475.65110885559 239.32419769255 472.53710885559 232.25819769255 472.53710885559 C 225.19019769255 472.53710885559 221.90319769255 475.65110885559 217.35219769255 479.96310885559 C 212.03319769255 485.00110885559 205.41419769255 491.27110885559 192.70519769255 491.27110885559 C 179.99619769255 491.27110885559 173.37819769255 485.00110885559 168.05919769255 479.96510885559 C 163.50819769255 475.65310885559 160.22119769255 472.53710885559 153.15319769255 472.53710885559 C 146.08519769255 472.53710885559 142.79819769255 475.65110885559 138.24719769255 479.96310885559 C 132.92819769255 485.00110885559 126.30919769255 491.27110885559 113.60019769255 491.27110885559 C 109.69019769255 491.27110885559 106.51819769255 488.10010885559 106.51819769255 484.18910885559 C 106.51819769255 480.27910885559 109.68919769255 477.10810885559 113.60019769255 477.10810885559 C 120.66819769255 477.10810885559 123.95619769255 473.99410885559 128.50619769255 469.68210885559 C 133.82519769255 464.64410885559 140.44419769255 458.37410885559 153.15319769255 458.37410885559 C 165.86419769255 458.37410885559 172.48119769255 464.64410885559 177.80019769255 469.68210885559 C 182.35019769255 473.99410885559 185.63819769255 477.10810885559 192.70419769255 477.10810885559 C 199.77119769255 477.10810885559 203.05919769255 473.99410885559 207.61019769255 469.68210885559 C 212.92919769255 464.64410885559 219.54719769255 458.37410885559 232.25719769255 458.37410885559 C 244.96619769255 458.37410885559 251.58319769255 464.64410885559 256.90319769255 469.68010885559 C 261.45319769255 473.99210885559 264.74119769255 477.10810885559 271.80919769255 477.10810885559 C 278.87419769255 477.10810885559 282.16419769255 473.99410885559 286.71519769255 469.68210885559 C 292.03419769255 464.64410885559 298.65319769255 458.37410885559 311.36219769255 458.37410885559 C 324.07119769255 458.37410885559 330.68919769255 464.64410885559 336.00719769255 469.68010885559 C 340.55819769255 473.99210885559 343.84619769255 477.10810885559 350.91319769255 477.10810885559 C 357.98119769255 477.10810885559 361.26919769255 473.99410885559 365.81919769255 469.68210885559 C 371.13819769255 464.64410885559 377.75719769255 458.37410885559 390.46619769255 458.37410885559 C 403.17719769255 458.37410885559 409.79419769255 464.64410885559 415.11319769255 469.68210885559 C 419.66419769255 473.99410885559 422.95119769255 477.10810885559 430.01719769255 477.10810885559 C 437.08419769255 477.10810885559 440.37419769255 473.99210885559 444.92519769255 469.68010885559 C 450.24419769255 464.64410885559 456.86319769255 458.37410885559 469.57419769255 458.37410885559 C 482.28319769255 458.37410885559 488.90219769255 464.64410885559 494.22119769255 469.68210885559 C 498.77119769255 473.99410885559 502.05919769255 477.10810885559 509.12619769255 477.10810885559 C 513.03719769255 477.10810885559 516.20819769255 480.27910885559 516.20819769255 484.18910885559 C 516.20919769255 488.10010885559 513.03819769255 491.27110885559 509.12719769255 491.27110885559 Z"/><path fill="#08619a" transform="matrix(1.7086089472432433 0 0 1.7086089472432433 -31.9979456217159 -33.22738214518294)" d="M 157.15519769255 310.87410885559 C 164.83319769255 309.91110885559 163.94219769255 313.40810885559 166.41219769255 314.78210885559 C 168.88019769255 316.15110885559 171.13419769255 311.63210885559 171.13419769255 311.63210885559 C 171.20319769255 313.14210885559 172.22719769255 315.39710885559 174.39219769255 315.39710885559 C 174.88019769255 315.39710885559 178.26919769255 315.39710885559 180.41119769255 315.39710885559 C 181.89719769255 331.82910885559 186.41819769255 347.37610885559 193.38519769255 361.50210885559 C 195.70019769255 361.39010885559 196.73019769255 360.58710885559 200.65019769255 356.87210885559 C 204.36319769255 353.35510885559 209.26519769255 348.71610885559 216.53219769255 345.74010885559 C 212.22219769255 336.10710885559 209.32419769255 325.70510885559 208.13319769255 314.78210885559 C 209.95519769255 314.78210885559 213.16319769255 314.78210885559 217.28119769255 314.78210885559 C 223.86419769255 314.78210885559 226.33419769255 310.80310885559 229.62419769255 310.80410885559 C 232.91419769255 310.80410885559 235.38419769255 314.01910885559 238.81219769255 314.01910885559 C 242.24019769255 314.01910885559 244.43719769255 311.48810885559 247.86319769255 311.48810885559 C 251.29319769255 311.48810885559 250.88319769255 314.01910885559 254.85619769255 314.01910885559 C 257.53319769255 314.01910885559 262.92719769255 314.01910885559 267.65019769255 314.01910885559 C 268.76019769255 318.59110885559 270.55419769255 322.89010885559 272.93919769255 326.79810885559 C 269.60019769255 330.13610885559 265.78919769255 333.94710885559 263.89619769255 335.83610885559 C 261.08219769255 338.64910885559 263.16519769255 340.14910885559 260.74219769255 342.57610885559 C 258.31819769255 345.00010885559 254.97619769255 344.76110885559 252.55019769255 347.18510885559 C 252.38219769255 347.35310885559 252.25819769255 347.54610885559 252.11519769255 347.73010885559 C 257.17919769255 350.54610885559 260.89219769255 354.06310885559 263.85019769255 356.86310885559 C 266.16319769255 359.05410885559 267.46019769255 360.21810885559 268.61419769255 360.84210885559 C 269.97519769255 358.62510885559 270.18719769255 356.01110885559 272.18219769255 354.01610885559 C 274.60719769255 351.59110885559 276.10619769255 353.67410885559 278.91819769255 350.86010885559 C 280.80919769255 348.96710885559 284.62119769255 345.15610885559 287.95819769255 341.81910885559 C 290.46519769255 343.34810885559 293.14819769255 344.60510885559 295.94619769255 345.62510885559 C 300.20619769255 343.92410885559 305.25919769255 342.79110885559 311.35819769255 342.79110885559 C 317.45819769255 342.79110885559 322.51219769255 343.92410885559 326.77319769255 345.62510885559 C 329.57219769255 344.60510885559 332.25519769255 343.34910885559 334.76319769255 341.81710885559 C 338.10219769255 345.15610885559 341.91119769255 348.96710885559 343.80219769255 350.86010885559 C 346.61519769255 353.67410885559 348.11419769255 351.59110885559 350.54019769255 354.01610885559 C 352.53619769255 356.01110885559 352.74519769255 358.62510885559 354.10619769255 360.84210885559 C 355.25619769255 360.21810885559 356.55219769255 359.05610885559 358.85819769255 356.87010885559 C 361.81819769255 354.06610885559 365.53519769255 350.54610885559 370.60519769255 347.72510885559 C 370.46219769255 347.54310885559 370.33819769255 347.35210885559 370.17019769255 347.18410885559 C 367.74319769255 344.75910885559 364.40219769255 344.99610885559 361.98019769255 342.57310885559 C 359.55519769255 340.14810885559 361.63619769255 338.64810885559 358.82519769255 335.83710885559 C 356.93119769255 333.94610885559 353.12019769255 330.13510885559 349.78119769255 326.79710885559 C 352.16619769255 322.88910885559 353.96019769255 318.59010885559 355.06819769255 314.01810885559 C 359.79319769255 314.01810885559 365.18719769255 314.01810885559 367.86419769255 314.01810885559 C 371.84019769255 314.01810885559 371.42719769255 311.48710885559 374.85719769255 311.48710885559 C 378.28519769255 311.48710885559 380.48019769255 314.01810885559 383.90919769255 314.01810885559 C 387.33719769255 314.01810885559 389.80619769255 310.80110885559 393.09719769255 310.80110885559 C 396.38819769255 310.80110885559 398.85519769255 314.78010885559 405.44119769255 314.78010885559 C 409.56019769255 314.78010885559 412.76719769255 314.78010885559 414.58919769255 314.78010885559 C 413.40019769255 325.70310885559 410.50119769255 336.10710885559 406.19019769255 345.74010885559 C 413.45519769255 348.71410885559 418.35519769255 353.35310885559 422.06619769255 356.86810885559 C 425.99219769255 360.58910885559 427.01919769255 361.38910885559 429.33719769255 361.50210885559 C 436.30419769255 347.37410885559 440.82419769255 331.82610885559 442.31119769255 315.39510885559 C 444.43319769255 315.39510885559 447.76219769255 315.39510885559 448.18319769255 315.39510885559 C 450.43219769255 315.39510885559 451.51919769255 313.14010885559 451.58719769255 311.63010885559 C 451.58719769255 311.63010885559 453.84419769255 316.15010885559 456.31219769255 314.78010885559 C 458.78219769255 313.40410885559 457.88919769255 309.90910885559 465.56719769255 310.86810885559 C 473.24819769255 311.83010885559 512.04319769255 321.77010885559 512.04319769255 303.39410885559 C 512.04519769255 285.01810885559 473.24819769255 294.95910885559 465.56719769255 295.91710885559 C 457.88919769255 296.88110885559 458.78219769255 293.38210885559 456.31219769255 292.01110885559 C 453.84419769255 290.64010885559 451.58719769255 295.15810885559 451.58719769255 295.15810885559 C 451.51919769255 293.64810885559 450.49519769255 291.39610885559 448.32919769255 291.39410885559 C 447.84319769255 291.39410885559 444.45219769255 291.39410885559 442.31019769255 291.39410885559 C 439.84019769255 264.08710885559 429.03919769255 239.19210885559 412.44919769255 219.27310885559 C 413.95019769255 217.77310885559 416.29619769255 215.42810885559 416.59219769255 215.12910885559 C 418.18119769255 213.54110885559 417.35919769255 211.17710885559 416.33919769255 210.06110885559 C 416.33919769255 210.06110885559 421.12919769255 211.66410885559 421.90319769255 208.94610885559 C 422.67919769255 206.22710885559 419.57619769255 204.38810885559 425.68519769255 199.63610885559 C 431.79419769255 194.88610885559 466.25819769255 174.48510885559 453.26219769255 161.48910885559 C 440.26919769255 148.49410885559 419.86719769255 182.95710885559 415.11619769255 189.06710885559 C 410.36419769255 195.17810885559 408.52219769255 192.07210885559 405.80719769255 192.84910885559 C 403.08819769255 193.62310885559 404.69119769255 198.41310885559 404.69119769255 198.41310885559 C 403.57719769255 197.39510885559 401.25819769255 196.52610885559 399.72519769255 198.05510885559 C 399.38119769255 198.39910885559 396.99319769255 200.78810885559 395.47919769255 202.30410885559 C 375.56019769255 185.71010885559 350.66419769255 174.91210885559 323.35719769255 172.44010885559 C 323.35719769255 170.31810885559 323.35719769255 166.99210885559 323.35719769255 166.56910885559 C 323.35719769255 164.32210885559 321.10619769255 163.23410885559 319.59519769255 163.16510885559 C 319.59519769255 163.16510885559 324.11419769255 160.90910885559 322.74419769255 158.44010885559 C 321.36919769255 155.97210885559 317.87319769255 156.86510885559 318.83219769255 149.18510885559 C 319.79419769255 141.50510885559 329.73419769255 102.71010885559 311.35919769255 102.71010885559 C 292.98319769255 102.71010885559 302.92419769255 141.50510885559 303.88219769255 149.18510885559 C 304.84419769255 156.86510885559 301.34719769255 155.97210885559 299.97319769255 158.44010885559 C 298.60419769255 160.90810885559 303.12319769255 163.16510885559 303.12319769255 163.16510885559 C 301.61119769255 163.23410885559 299.36119769255 164.25810885559 299.36119769255 166.42310885559 C 299.36119769255 166.91310885559 299.36119769255 170.29910885559 299.36119769255 172.44010885559 C 272.05419769255 174.91210885559 247.15819769255 185.71010885559 227.23719769255 202.30610885559 C 225.73719769255 200.80410885559 223.39419769255 198.45910885559 223.09719769255 198.16010885559 C 221.50419769255 196.57110885559 219.14119769255 197.39310885559 218.02719769255 198.41310885559 C 218.02719769255 198.41310885559 219.63019769255 193.62310885559 216.91319769255 192.85110885559 C 214.19619769255 192.07210885559 212.35419769255 195.17410885559 207.60219769255 189.06910885559 C 202.85019769255 182.95810885559 182.44919769255 148.49610885559 169.45619769255 161.48910885559 C 156.46019769255 174.48310885559 190.92419769255 194.88410885559 197.03419769255 199.63610885559 C 203.14419769255 204.38810885559 200.03919769255 206.23110885559 200.81619769255 208.94610885559 C 201.59219769255 211.66310885559 206.38019769255 210.05910885559 206.38019769255 210.05910885559 C 205.36219769255 211.17710885559 204.49119769255 213.49110885559 206.02319769255 215.02410885559 C 206.36919769255 215.37210885559 208.75519769255 217.75810885559 210.26919769255 219.27210885559 C 193.68019769255 239.19110885559 182.87919769255 264.08510885559 180.40919769255 291.39310885559 C 178.28719769255 291.39310885559 174.96019769255 291.39310885559 174.53919769255 291.39310885559 C 172.28919769255 291.39510885559 171.20019769255 293.64710885559 171.13219769255 295.15710885559 C 171.13219769255 295.15710885559 168.87619769255 290.63810885559 166.41019769255 292.01010885559 C 163.94019769255 293.38310885559 164.83119769255 296.87810885559 157.15319769255 295.92010885559 C 149.47219769255 294.95810885559 110.67819769255 285.01910885559 110.67819769255 303.39310885559 C 110.67819769255 321.77210885559 149.47419769255 311.83210885559 157.15519769255 310.87410885559 Z M 392.39519769255 238.46310885559 C 404.43419769255 253.46410885559 412.39519769255 271.86710885559 414.59019769255 292.01210885559 C 412.76819769255 292.01410885559 409.55919769255 292.01410885559 405.44219769255 292.01410885559 C 398.85819769255 292.01410885559 396.38819769255 295.99210885559 393.09819769255 295.99210885559 C 389.80819769255 295.99210885559 387.33819769255 292.77510885559 383.91019769255 292.77510885559 C 380.48119769255 292.77510885559 378.28619769255 295.30610885559 374.85819769255 295.30610885559 C 371.42719769255 295.30610885559 371.84019769255 292.77510885559 367.86519769255 292.77510885559 C 365.18819769255 292.77510885559 359.79419769255 292.77510885559 355.06919769255 292.77510885559 C 353.96319769255 288.20310885559 352.16719769255 283.90310885559 349.78219769255 279.99510885559 C 353.12119769255 276.65810885559 356.93219769255 272.84710885559 358.82619769255 270.95710885559 C 361.63819769255 268.14410885559 359.55619769255 266.64410885559 361.98119769255 264.21910885559 C 364.40419769255 261.79710885559 367.74519769255 262.03110885559 370.17119769255 259.60910885559 C 372.59519769255 257.18510885559 372.06719769255 253.16610885559 374.39119769255 250.83810885559 C 376.72119769255 248.51010885559 381.28019769255 249.57710885559 385.93519769255 244.92210885559 C 388.84119769255 242.01510885559 391.10519769255 239.75310885559 392.39519769255 238.46310885559 Z M 322.74719769255 209.31810885559 C 322.74719769255 205.19610885559 322.74719769255 201.98910885559 322.74719769255 200.16810885559 C 342.89219769255 202.36510885559 361.29519769255 210.32610885559 376.29819769255 222.36310885559 C 375.00619769255 223.65310885559 372.74319769255 225.91610885559 369.83719769255 228.82210885559 C 365.18219769255 233.47710885559 366.24819769255 238.03610885559 363.92119769255 240.36510885559 C 361.59319769255 242.68910885559 357.57419769255 242.16310885559 355.15119769255 244.58810885559 C 352.72719769255 247.01210885559 352.96419769255 250.35410885559 350.54219769255 252.77610885559 C 348.11519769255 255.20210885559 346.61619769255 253.12210885559 343.80419769255 255.93110885559 C 341.91319769255 257.82410885559 338.10419769255 261.63610885559 334.76519769255 264.97510885559 C 330.85719769255 262.59010885559 326.55719769255 260.79410885559 321.98519769255 259.68910885559 C 321.98519769255 254.96210885559 321.98519769255 249.57010885559 321.98519769255 246.89310885559 C 321.98519769255 242.91710885559 319.45219769255 243.32910885559 319.45219769255 239.89810885559 C 319.45219769255 236.47210885559 321.98519769255 234.27410885559 321.98519769255 230.84610885559 C 321.98519769255 227.41810885559 318.76819769255 224.95010885559 318.76819769255 221.66010885559 C 318.76719769255 218.37010885559 322.74719769255 215.90210885559 322.74719769255 209.31810885559 Z M 311.36219769255 291.69110885559 C 317.82319769255 291.69110885559 323.06619769255 296.93310885559 323.06619769255 303.39610885559 C 323.06619769255 309.86010885559 317.82419769255 315.10110885559 311.36219769255 315.10110885559 C 304.90119769255 315.10110885559 299.65919769255 309.86010885559 299.65919769255 303.39610885559 C 299.65819769255 296.93310885559 304.90119769255 291.69110885559 311.36219769255 291.69110885559 Z M 299.97619769255 200.16810885559 C 299.97619769255 201.99010885559 299.97619769255 205.19710885559 299.97619769255 209.31810885559 C 299.97619769255 215.90210885559 303.95519769255 218.37010885559 303.95519769255 221.66110885559 C 303.95519769255 224.95110885559 300.73819769255 227.41910885559 300.73819769255 230.84710885559 C 300.73819769255 234.27510885559 303.27119769255 236.47210885559 303.27119769255 239.89910885559 C 303.27119769255 243.32910885559 300.73819769255 242.91810885559 300.73819769255 246.89410885559 C 300.73819769255 249.57110885559 300.73819769255 254.96310885559 300.73819769255 259.69010885559 C 296.16819769255 260.79410885559 291.86619769255 262.59010885559 287.95819769255 264.97610885559 C 284.62119769255 261.63710885559 280.81119769255 257.82510885559 278.92019769255 255.93210885559 C 276.10619769255 253.12010885559 274.60719769255 255.20110885559 272.18219769255 252.77910885559 C 269.75819769255 250.35510885559 269.99719769255 247.01310885559 267.57119769255 244.58710885559 C 265.14819769255 242.16410885559 261.12819769255 242.69010885559 258.80219769255 240.36610885559 C 256.47419769255 238.03610885559 257.54119769255 233.48010885559 252.88619769255 228.82510885559 C 249.97919769255 225.91810885559 247.71319769255 223.65610885559 246.42519769255 222.36410885559 C 261.42719769255 210.32610885559 279.83219769255 202.36510885559 299.97619769255 200.16810885559 Z M 230.32619769255 238.46310885559 C 231.61819769255 239.75310885559 233.88219769255 242.02010885559 236.78719769255 244.92410885559 C 241.44219769255 249.57710885559 246.00019769255 248.51010885559 248.32619769255 250.83810885559 C 250.65419769255 253.16610885559 250.12619769255 257.18510885559 252.55119769255 259.60910885559 C 254.97719769255 262.03110885559 258.31919769255 261.79710885559 260.74119769255 264.21910885559 C 263.16619769255 266.64310885559 261.08719769255 268.14310885559 263.89719769255 270.95510885559 C 265.79019769255 272.84610885559 269.60219769255 276.65710885559 272.94019769255 279.99810885559 C 270.55519769255 283.90510885559 268.75919769255 288.20410885559 267.65119769255 292.77610885559 C 262.92819769255 292.77410885559 257.53619769255 292.77410885559 254.85919769255 292.77410885559 C 250.88119769255 292.77410885559 251.29419769255 295.30510885559 247.86619769255 295.30910885559 C 244.43619769255 295.30910885559 242.24219769255 292.77410885559 238.81219769255 292.77410885559 C 235.38619769255 292.77410885559 232.91419769255 295.99310885559 229.62619769255 295.99110885559 C 226.33419769255 295.99110885559 223.86619769255 292.01310885559 217.28119769255 292.01310885559 C 213.16319769255 292.01310885559 209.95419769255 292.01310885559 208.13319769255 292.01310885559 C 210.32819769255 271.86710885559 218.28919769255 253.46410885559 230.32619769255 238.46310885559 Z"/></svg>